<?xml version="1.0" encoding="UTF-8"?>
<svg width="34px" height="27px" viewBox="0 0 34 27" version="1.1" xmlns="http://www.w3.org/2000/svg" xmlns:xlink="http://www.w3.org/1999/xlink">
    <!-- Generator: Sketch 42 (36781) - http://www.bohemiancoding.com/sketch -->
    <title>Fill 1</title>
    <desc>Created with Sketch.</desc>
    <defs></defs>
    <g id="Page-1" stroke="none" stroke-width="1" fill="none" fill-rule="evenodd">
        <g id="Index-Copy" transform="translate(-1114.000000, -4028.000000)" fill="#25BDE8">
            <path d="M1147.28718,4031.1965 C1146.06442,4031.73758 1144.75236,4032.10541 1143.37301,4032.26933 C1144.78035,4031.42773 1145.86118,4030.08902 1146.36827,4028.4991 C1145.05222,4029.28007 1143.59224,4029.8458 1142.0383,4030.15366 C1140.79555,4028.82961 1139.02505,4028 1137.06331,4028 C1133.29774,4028 1130.24517,4031.05257 1130.24517,4034.8168 C1130.24517,4035.34989 1130.30581,4035.87097 1130.42175,4036.37007 C1124.75708,4036.08421 1119.73344,4033.37081 1116.37101,4029.24542 C1115.78262,4030.25361 1115.44811,4031.42573 1115.44811,4032.67314 C1115.44811,4035.03737 1116.86478,4037.12439 1118.69392,4038.34715 C1117.57645,4038.31116 1115.81927,4038.00464 1115.81927,4037.49355 L1115.81927,4037.57884 C1115.81927,4040.88062 1117.9576,4043.63666 1121.07481,4044.2637 C1120.50307,4044.41963 1119.79407,4044.50292 1119.17103,4044.50292 C1118.73124,4044.50292 1118.25213,4044.45828 1117.83433,4044.37898 C1118.70192,4047.08838 1121.19208,4049.05812 1124.17535,4049.11476 C1121.84311,4050.9419 1118.88916,4052.03273 1115.69466,4052.03273 C1115.14292,4052.03273 1114.59518,4051.99874 1114.06143,4051.93744 C1117.07935,4053.87053 1120.65767,4055 1124.50919,4055 C1137.04865,4055 1143.9041,4044.61221 1143.9041,4035.60377 C1143.9041,4035.30724 1143.89677,4035.01338 1143.88277,4034.72151 C1145.21548,4033.75996 1146.36894,4032.55919 1147.28318,4031.1925 L1147.28718,4031.1965 Z" id="Fill-1"></path>
        </g>
    </g>
</svg>