<?xml version="1.0" encoding="utf-8"?>
<!-- Generator: Adobe Illustrator 18.0.0, SVG Export Plug-In . SVG Version: 6.00 Build 0)  -->
<!DOCTYPE svg PUBLIC "-//W3C//DTD SVG 1.1//EN" "http://www.w3.org/Graphics/SVG/1.1/DTD/svg11.dtd">
<svg version="1.1" id="Layer_1" xmlns="http://www.w3.org/2000/svg" xmlns:xlink="http://www.w3.org/1999/xlink" x="0px" y="0px"
	 viewBox="0 0 623.6 141.7" enable-background="new 0 0 623.6 141.7" xml:space="preserve">
<g id="XMLID_2199_">
	<g id="XMLID_2200_">
		<path id="XMLID_2227_" d="M212.9,80.7c-2.4,11.6-12.1,18.7-25,18.7c-14.9,0-25.9-11.7-25.9-28c0-16.1,11.1-28.1,26-28.1
			c8.5,0,15.9,4,20.5,10.9c4.9,7.5,5.1,14.6,5.3,19.9h-38.5c1.3,13.8,10.4,14.6,12.9,14.6c5.3,0,8.8-2.5,10.9-8H212.9z M199.2,65
			c-0.9-6.8-5-10.5-11.3-10.5c-5.8,0-10.3,3.9-12,10.5H199.2z"/>
		<path id="XMLID_2222_" d="M271.3,87.9h4.9v10.4h-17.9V62.6c0-5-2.9-8-7.9-8c-6.4,0-12,6.4-12,13.6v19.7h0v10.4h-18V87.9h5V55.3h-5
			V44.9h18v6.8c2.8-3,7.7-8.2,16.3-8.2c9.5,0,16.6,6.8,16.6,16V87.9z"/>
		<path id="XMLID_2219_" d="M133,43.3c-5.9,0-11.5,2.5-15.7,7v-5.4H99.3v10.4h6v49.6h-6v10.4h18v-10.4h0V92.1
			c5.1,5.5,9.2,7.5,15.3,7.5c13.4,0,23.1-11.6,23.1-27.7C155.7,55,146.3,43.3,133,43.3z M139.2,85.2c-2.5,2.3-5.8,3.5-9.2,3.5
			c-7.6,0-13-7.2-13-17.2c0-10.3,5-16.7,13-16.8c10.2,0,13.9,8,13.9,16.4C143.8,78.2,142.5,82.1,139.2,85.2z"/>
		<path id="XMLID_2216_" d="M339.1,37.2V26.4h-18.6v10.7h0v13.3c-5.3-5.7-9.5-7.7-15.9-7.7c-13.8,0-24,12.1-24,28.7
			c0,17.4,9.7,29.5,23.5,29.5c6.1,0,11.9-2.6,16.3-7.2v5.6h18.6V88.6h-6.1V37.2H339.1z M314.4,85.2c-2.5,2.3-5.8,3.5-9.2,3.5
			c-7.6,0-13-7.2-13-17.2c0-10.3,4.9-16.7,13-16.8c10.2,0,13.9,8,13.9,16.4C319.1,78.2,317.8,82.1,314.4,85.2z"/>
		<path id="XMLID_2214_" d="M362.4,53.2c3.5-6.8,7.4-9.6,13.3-9.6c1.8,0,3.4,0.2,6,0.7v12.4c-2.4-0.5-4.3-0.7-6.5-0.7
			c-7,0-12.8,5-12.8,11.1v20.7h0v10.4h-13.1V87.9h0V55.3h-5.1V44.9h18.1V53.2z"/>
		<path id="XMLID_2211_" d="M437,80.7c-2.4,11.6-12.1,18.7-25,18.7c-14.9,0-25.9-11.7-25.9-28c0-16.1,11-28.1,26-28.1
			c8.5,0,16,4,20.5,10.9c4.9,7.5,5.1,14.6,5.3,19.9h-38.5c1.3,13.8,10.4,14.6,12.9,14.6c5.3,0,8.8-2.5,10.9-8H437z M423.4,65
			c-0.9-6.8-5-10.5-11.3-10.5c-5.8,0-10.3,3.9-12,10.5H423.4z"/>
		<path id="XMLID_2208_" d="M492.1,87.9h4.6v10.4h-16.5V92c-5.5,5.5-9.6,7.4-16.1,7.4c-10.7,0-18.8-7.2-18.8-16.6
			c0-15.6,17.6-17.3,34.7-18.9c-0.1-8.2-2.1-10.3-9.9-10.3c-5.5,0-9.3,3.1-9.6,8.1l-13-0.4c0.7-10.7,9.3-17.5,21.9-17.5
			c14.7,0,22.7,6.7,22.7,18.8V87.9z M479.7,73c-12.6,1.2-20.7,2.3-20.7,9.7c0,4.4,3.5,7.3,8.8,7.3c6.8,0,12-5.1,12-11.8V73z"/>
		<path id="XMLID_2206_" d="M521.6,51.2c5.7-6,9.2-7.7,15.2-7.7c6,0,9.4,2.2,12.8,8.3c2.6-2.8,7.6-8.3,16.1-8.3
			c8.6,0,14.4,6.1,14.4,15.2v29.2h5v10.4h-18V62.4c0-4.7-2.2-7.5-5.7-7.5c-5.5,0-10.6,7-10.6,14.5v18.5h0v10.4h-13.1V62.9
			c0-5.4-1.8-8-5.6-8c-5.9,0-10.9,7.2-10.7,15.6v17.3h0v10.4h-17.6V87.9h4.5V55.3H504V44.9h17.6V51.2z"/>
		<path d="M66.5,41.7c-16.4,0-29.8,13.4-29.8,29.8c0,16.4,13.4,29.8,29.8,29.8c16.5,0,29.8-13.4,29.8-29.8
			C96.3,55.1,82.9,41.7,66.5,41.7z M83.5,72.1c0,9.4-7.6,17-17,17c-9.4,0-17-7.6-17-17c0-9.4,7.6-17,17-17
			C75.8,55.1,83.5,62.7,83.5,72.1z"/>
	</g>
</g>
</svg>
